<svg xmlns="http://www.w3.org/2000/svg" viewBox="0 0 700 288" width="700" height="288" font-family="system-ui, -apple-system, sans-serif">
<rect width="100%" height="100%" fill="white"/>
<line x1="60" y1="246.20" x2="312.50" y2="246.20" stroke="#ecf0f1" stroke-width="1"/>
<line x1="60" y1="66" x2="60" y2="246.20" stroke="#ecf0f1" stroke-width="1"/>
<text x="122.49" y="261.20" text-anchor="middle" fill="#7f8c8d" font-size="11"><title>GHC.Core.Opt.Simplify.Iteration.Inline.Worker</title>GHC.Core.Opt.Simpl…</text>
<text x="250.01" y="261.20" text-anchor="middle" fill="#7f8c8d" font-size="11">mkFastStringBytes</text>
<text x="54" y="241.68" text-anchor="end" fill="#7f8c8d" font-size="11">0.0</text>
<text x="54" y="185.19" text-anchor="end" fill="#7f8c8d" font-size="11">10.0</text>
<text x="54" y="128.70" text-anchor="end" fill="#7f8c8d" font-size="11">20.0</text>
<text x="54" y="72.21" text-anchor="end" fill="#7f8c8d" font-size="11">30.0</text>
<rect x="71.48" y="74.19" width="102.02" height="163.82" fill="#3498db"/>
<rect x="199.00" y="133.50" width="102.02" height="104.50" fill="#3498db"/>
<text x="186.25" y="62" text-anchor="middle" fill="#555555" font-size="11">before</text>
<line x1="322.50" y1="246.20" x2="575" y2="246.20" stroke="#ecf0f1" stroke-width="1"/>
<line x1="322.50" y1="66" x2="322.50" y2="246.20" stroke="#ecf0f1" stroke-width="1"/>
<text x="384.99" y="261.20" text-anchor="middle" fill="#7f8c8d" font-size="11">GHC.Tc.Solver.Monad</text>
<text x="512.51" y="261.20" text-anchor="middle" fill="#7f8c8d" font-size="11"><title>GHC.CmmToAsm.X86.Ppr</title>GHC.CmmToAsm.X86.P…</text>
<text x="316.50" y="241.68" text-anchor="end" fill="#7f8c8d" font-size="11">0.0</text>
<text x="316.50" y="175.08" text-anchor="end" fill="#7f8c8d" font-size="11">5.0</text>
<text x="316.50" y="108.49" text-anchor="end" fill="#7f8c8d" font-size="11">10.0</text>
<rect x="333.98" y="74.19" width="102.02" height="163.82" fill="#3498db"/>
<rect x="461.50" y="116.81" width="102.02" height="121.20" fill="#3498db"/>
<text x="448.75" y="62" text-anchor="middle" fill="#555555" font-size="11">after</text>
<text x="317.50" y="26" text-anchor="middle" fill="#7f8c8d" font-size="14">Faceted long names</text>
<rect x="595" y="39" width="12" height="12" fill="#3498db"/>
<text x="611" y="49" text-anchor="start" fill="#7f8c8d" font-size="11">series 0</text>
</svg>
