<svg xmlns="http://www.w3.org/2000/svg" viewBox="0 0 560 256" width="560" height="256" font-family="system-ui, -apple-system, sans-serif">
<rect width="100%" height="100%" fill="white"/>
<line x1="55" y1="228.20" x2="440" y2="228.20" stroke="#ecf0f1" stroke-width="1"/>
<line x1="55" y1="34" x2="55" y2="228.20" stroke="#ecf0f1" stroke-width="1"/>
<text x="118.49" y="243.20" text-anchor="middle" fill="#7f8c8d" font-size="11">0.0</text>
<text x="217.73" y="243.20" text-anchor="middle" fill="#7f8c8d" font-size="11">2.0</text>
<text x="316.97" y="243.20" text-anchor="middle" fill="#7f8c8d" font-size="11">4.0</text>
<text x="416.20" y="243.20" text-anchor="middle" fill="#7f8c8d" font-size="11">6.0</text>
<text x="49" y="223.04" text-anchor="end" fill="#7f8c8d" font-size="11">0.0</text>
<text x="49" y="164.19" text-anchor="end" fill="#7f8c8d" font-size="11">1.0</text>
<text x="49" y="105.34" text-anchor="end" fill="#7f8c8d" font-size="11">2.0</text>
<text x="49" y="46.49" text-anchor="end" fill="#7f8c8d" font-size="11">3.0</text>
<rect x="170.10" y="42.83" width="15.88" height="176.55" fill="#3498db"/>
<rect x="189.94" y="42.83" width="15.88" height="176.55" fill="#3498db"/>
<rect x="209.79" y="101.68" width="15.88" height="117.70" fill="#3498db"/>
<rect x="229.64" y="42.83" width="15.88" height="176.55" fill="#3498db"/>
<rect x="249.48" y="160.52" width="15.88" height="58.85" fill="#3498db"/>
<rect x="269.33" y="42.83" width="15.88" height="176.55" fill="#3498db"/>
<rect x="289.18" y="101.68" width="15.88" height="117.70" fill="#3498db"/>
<rect x="309.03" y="42.83" width="15.88" height="176.55" fill="#3498db"/>
<polyline points="80.44,219.33 83.07,219.32 85.70,219.31 88.33,219.29 90.96,219.26 93.59,219.23 96.22,219.19 98.86,219.14 101.49,219.07 104.12,219.00 106.75,218.91 109.38,218.80 112.01,218.66 114.64,218.51 117.27,218.33 119.90,218.12 122.53,217.88 125.16,217.61 127.79,217.30 130.43,216.95 133.06,216.56 135.69,216.14 138.32,215.67 140.95,215.16 143.58,214.62 146.21,214.04 148.84,213.43 151.47,212.79 154.10,212.13 156.73,211.45 159.37,210.76 162.00,210.06 164.63,209.36 167.26,208.66 169.89,207.98 172.52,207.32 175.15,206.68 177.78,206.08 180.41,205.50 183.04,204.97 185.67,204.48 188.31,204.03 190.94,203.63 193.57,203.27 196.20,202.96 198.83,202.69 201.46,202.46 204.09,202.28 206.72,202.13 209.35,202.02 211.98,201.94 214.61,201.89 217.24,201.87 219.88,201.87 222.51,201.89 225.14,201.93 227.77,201.98 230.40,202.05 233.03,202.13 235.66,202.21 238.29,202.30 240.92,202.39 243.55,202.48 246.18,202.57 248.82,202.66 251.45,202.75 254.08,202.84 256.71,202.92 259.34,203.01 261.97,203.09 264.60,203.17 267.23,203.26 269.86,203.35 272.49,203.44 275.12,203.55 277.76,203.66 280.39,203.79 283.02,203.94 285.65,204.10 288.28,204.29 290.91,204.50 293.54,204.74 296.17,205.00 298.80,205.29 301.43,205.61 304.06,205.97 306.69,206.35 309.33,206.76 311.96,207.21 314.59,207.68 317.22,208.17 319.85,208.69 322.48,209.23 325.11,209.79 327.74,210.36 330.37,210.94 333.00,211.52 335.63,212.10 338.27,212.67 340.90,213.23 343.53,213.78 346.16,214.31 348.79,214.82 351.42,215.30 354.05,215.75 356.68,216.18 359.31,216.57 361.94,216.93 364.57,217.26 367.21,217.55 369.84,217.82 372.47,218.05 375.10,218.26 377.73,218.44 380.36,218.60 382.99,218.74 385.62,218.85 388.25,218.95 390.88,219.03 393.51,219.10 396.14,219.16 398.78,219.20 401.41,219.24 404.04,219.27 406.67,219.29 409.30,219.31 411.93,219.33 414.56,219.34" fill="none" stroke="#9b59b6" stroke-width="2" stroke-linejoin="round" stroke-linecap="round"/>
<text x="247.50" y="26" text-anchor="middle" fill="#7f8c8d" font-size="14">Distribution</text>
<rect x="455" y="39" width="12" height="12" fill="#3498db"/>
<text x="471" y="49" text-anchor="start" fill="#7f8c8d" font-size="11">series 0</text>
<rect x="455" y="56" width="12" height="12" fill="#9b59b6"/>
<text x="471" y="66" text-anchor="start" fill="#7f8c8d" font-size="11">series 1</text>
</svg>
