<svg xmlns="http://www.w3.org/2000/svg" viewBox="0 0 560 224" width="560" height="224" font-family="system-ui, -apple-system, sans-serif">
<rect width="100%" height="100%" fill="white"/>
<line x1="55" y1="196.20" x2="440" y2="196.20" stroke="#ecf0f1" stroke-width="1"/>
<line x1="55" y1="34" x2="55" y2="196.20" stroke="#ecf0f1" stroke-width="1"/>
<text x="114.60" y="211.20" text-anchor="middle" fill="#7f8c8d" font-size="11">0.0</text>
<text x="220.92" y="211.20" text-anchor="middle" fill="#7f8c8d" font-size="11">2.0</text>
<text x="327.24" y="211.20" text-anchor="middle" fill="#7f8c8d" font-size="11">4.0</text>
<text x="433.57" y="211.20" text-anchor="middle" fill="#7f8c8d" font-size="11">6.0</text>
<text x="49" y="192.86" text-anchor="end" fill="#7f8c8d" font-size="11">0.0</text>
<text x="49" y="144.33" text-anchor="end" fill="#7f8c8d" font-size="11">0.1</text>
<text x="49" y="95.80" text-anchor="end" fill="#7f8c8d" font-size="11">0.2</text>
<text x="49" y="47.27" text-anchor="end" fill="#7f8c8d" font-size="11">0.3</text>
<polyline points="72.50,188.83 75.26,188.71 78.01,188.57 80.77,188.39 83.52,188.16 86.28,187.87 89.04,187.51 91.79,187.08 94.55,186.55 97.30,185.91 100.06,185.15 102.81,184.24 105.57,183.17 108.33,181.91 111.08,180.45 113.84,178.77 116.59,176.84 119.35,174.66 122.11,172.20 124.86,169.45 127.62,166.40 130.37,163.05 133.13,159.40 135.89,155.45 138.64,151.20 141.40,146.68 144.15,141.90 146.91,136.90 149.67,131.70 152.42,126.35 155.18,120.87 157.93,115.32 160.69,109.75 163.44,104.19 166.20,98.70 168.96,93.32 171.71,88.10 174.47,83.08 177.22,78.29 179.98,73.76 182.74,69.52 185.49,65.59 188.25,61.98 191.00,58.70 193.76,55.75 196.52,53.13 199.27,50.82 202.03,48.82 204.78,47.11 207.54,45.67 210.30,44.48 213.05,43.51 215.81,42.76 218.56,42.19 221.32,41.79 224.07,41.53 226.83,41.39 229.59,41.37 232.34,41.45 235.10,41.60 237.85,41.84 240.61,42.13 243.37,42.49 246.12,42.91 248.88,43.38 251.63,43.91 254.39,44.49 257.15,45.14 259.90,45.86 262.66,46.65 265.41,47.52 268.17,48.48 270.93,49.54 273.68,50.70 276.44,51.98 279.19,53.39 281.95,54.92 284.70,56.61 287.46,58.44 290.22,60.43 292.97,62.60 295.73,64.94 298.48,67.46 301.24,70.18 304.00,73.10 306.75,76.21 309.51,79.53 312.26,83.04 315.02,86.75 317.78,90.65 320.53,94.72 323.29,98.96 326.04,103.33 328.80,107.83 331.56,112.42 334.31,117.07 337.07,121.76 339.82,126.46 342.58,131.12 345.33,135.71 348.09,140.21 350.85,144.57 353.60,148.78 356.36,152.81 359.11,156.62 361.87,160.22 364.63,163.58 367.38,166.69 370.14,169.54 372.89,172.15 375.65,174.51 378.41,176.62 381.16,178.50 383.92,180.16 386.67,181.62 389.43,182.88 392.19,183.97 394.94,184.90 397.70,185.69 400.45,186.35 403.21,186.91 405.96,187.37 408.72,187.74 411.48,188.05 414.23,188.30 416.99,188.50 419.74,188.66 422.50,188.78" fill="none" stroke="#3498db" stroke-width="2" stroke-linejoin="round" stroke-linecap="round"/>
<text x="247.50" y="26" text-anchor="middle" fill="#7f8c8d" font-size="14">Density (KDE)</text>
<rect x="455" y="39" width="12" height="12" fill="#3498db"/>
<text x="471" y="49" text-anchor="start" fill="#7f8c8d" font-size="11">series 0</text>
</svg>
