<svg xmlns="http://www.w3.org/2000/svg" viewBox="0 0 560 256" width="560" height="256" font-family="system-ui, -apple-system, sans-serif">
<rect width="100%" height="100%" fill="white"/>
<line x1="55" y1="228.20" x2="440" y2="228.20" stroke="#ecf0f1" stroke-width="1"/>
<line x1="55" y1="34" x2="55" y2="228.20" stroke="#ecf0f1" stroke-width="1"/>
<text x="120.39" y="243.20" text-anchor="middle" fill="#7f8c8d" font-size="11">0.0</text>
<text x="222.08" y="243.20" text-anchor="middle" fill="#7f8c8d" font-size="11">2.0</text>
<text x="323.77" y="243.20" text-anchor="middle" fill="#7f8c8d" font-size="11">4.0</text>
<text x="425.46" y="243.20" text-anchor="middle" fill="#7f8c8d" font-size="11">6.0</text>
<text x="49" y="223.04" text-anchor="end" fill="#7f8c8d" font-size="11">0.0</text>
<text x="49" y="164.19" text-anchor="end" fill="#7f8c8d" font-size="11">1.0</text>
<text x="49" y="105.34" text-anchor="end" fill="#7f8c8d" font-size="11">2.0</text>
<text x="49" y="46.49" text-anchor="end" fill="#7f8c8d" font-size="11">3.0</text>
<rect x="173.14" y="42.83" width="15.25" height="176.55" fill="#3498db"/>
<rect x="192.21" y="101.68" width="15.25" height="117.70" fill="#3498db"/>
<rect x="211.27" y="101.68" width="15.25" height="117.70" fill="#3498db"/>
<rect x="230.34" y="160.52" width="15.25" height="58.85" fill="#3498db"/>
<rect x="249.41" y="101.68" width="15.25" height="117.70" fill="#3498db"/>
<rect x="268.47" y="101.68" width="15.25" height="117.70" fill="#3498db"/>
<rect x="287.54" y="160.52" width="15.25" height="58.85" fill="#3498db"/>
<rect x="306.61" y="42.83" width="15.25" height="176.55" fill="#3498db"/>
<polyline points="80.13,219.33 82.76,219.31 85.40,219.30 88.03,219.28 90.67,219.25 93.31,219.21 95.94,219.17 98.58,219.12 101.21,219.05 103.85,218.98 106.48,218.88 109.12,218.77 111.76,218.64 114.39,218.49 117.03,218.31 119.66,218.11 122.30,217.88 124.94,217.61 127.57,217.31 130.21,216.98 132.84,216.61 135.48,216.20 138.11,215.76 140.75,215.28 143.39,214.77 146.02,214.22 148.66,213.64 151.29,213.03 153.93,212.40 156.56,211.75 159.20,211.09 161.84,210.42 164.47,209.74 167.11,209.06 169.74,208.40 172.38,207.75 175.02,207.11 177.65,206.50 180.29,205.92 182.92,205.38 185.56,204.86 188.19,204.38 190.83,203.95 193.47,203.55 196.10,203.19 198.74,202.87 201.37,202.59 204.01,202.35 206.65,202.14 209.28,201.97 211.92,201.82 214.55,201.71 217.19,201.62 219.82,201.55 222.46,201.50 225.10,201.47 227.73,201.45 230.37,201.45 233.00,201.46 235.64,201.48 238.27,201.50 240.91,201.54 243.55,201.58 246.18,201.63 248.82,201.69 251.45,201.76 254.09,201.83 256.73,201.91 259.36,201.99 262.00,202.09 264.63,202.19 267.27,202.31 269.90,202.44 272.54,202.58 275.18,202.73 277.81,202.90 280.45,203.09 283.08,203.29 285.72,203.52 288.35,203.76 290.99,204.02 293.63,204.31 296.26,204.61 298.90,204.94 301.53,205.29 304.17,205.67 306.81,206.07 309.44,206.50 312.08,206.95 314.71,207.42 317.35,207.92 319.98,208.43 322.62,208.96 325.26,209.51 327.89,210.06 330.53,210.63 333.16,211.20 335.80,211.77 338.44,212.33 341.07,212.89 343.71,213.43 346.34,213.96 348.98,214.47 351.61,214.96 354.25,215.42 356.89,215.86 359.52,216.27 362.16,216.64 364.79,216.99 367.43,217.31 370.06,217.59 372.70,217.85 375.34,218.08 377.97,218.28 380.61,218.45 383.24,218.61 385.88,218.74 388.52,218.85 391.15,218.95 393.79,219.03 396.42,219.10 399.06,219.15 401.69,219.20 404.33,219.23 406.97,219.26 409.60,219.29 412.24,219.31 414.87,219.32" fill="none" stroke="#9b59b6" stroke-width="2" stroke-linejoin="round" stroke-linecap="round"/>
<text x="247.50" y="26" text-anchor="middle" fill="#7f8c8d" font-size="14">Distribution</text>
<rect x="455" y="39" width="12" height="12" fill="#3498db"/>
<text x="471" y="49" text-anchor="start" fill="#7f8c8d" font-size="11">series 0</text>
<rect x="455" y="56" width="12" height="12" fill="#9b59b6"/>
<text x="471" y="66" text-anchor="start" fill="#7f8c8d" font-size="11">series 1</text>
</svg>
