<svg xmlns="http://www.w3.org/2000/svg" viewBox="0 0 440 224" width="440" height="224" font-family="system-ui, -apple-system, sans-serif">
<rect width="100%" height="100%" fill="white"/>
<line x1="55" y1="196.20" x2="320" y2="196.20" stroke="#ecf0f1" stroke-width="1"/>
<line x1="55" y1="34" x2="55" y2="196.20" stroke="#ecf0f1" stroke-width="1"/>
<text x="63.96" y="211.20" text-anchor="middle" fill="#7f8c8d" font-size="11">1.0</text>
<text x="141.17" y="211.20" text-anchor="middle" fill="#7f8c8d" font-size="11">2.0</text>
<text x="218.39" y="211.20" text-anchor="middle" fill="#7f8c8d" font-size="11">3.0</text>
<text x="295.60" y="211.20" text-anchor="middle" fill="#7f8c8d" font-size="11">4.0</text>
<text x="49" y="192.49" text-anchor="end" fill="#7f8c8d" font-size="11">0.0</text>
<text x="49" y="118.77" text-anchor="end" fill="#7f8c8d" font-size="11">5.0</text>
<text x="49" y="45.04" text-anchor="end" fill="#7f8c8d" font-size="11">10.0</text>
<rect x="67.05" y="41.37" width="24.71" height="147.45" fill="#3498db"/>
<rect x="97.93" y="188.83" width="24.71" height="0" fill="#3498db"/>
<rect x="128.82" y="41.37" width="24.71" height="147.45" fill="#3498db"/>
<rect x="159.70" y="115.10" width="24.71" height="73.73" fill="#3498db"/>
<rect x="190.59" y="115.10" width="24.71" height="73.73" fill="#3498db"/>
<rect x="221.47" y="115.10" width="24.71" height="73.73" fill="#3498db"/>
<rect x="252.36" y="115.10" width="24.71" height="73.73" fill="#3498db"/>
<rect x="283.25" y="41.37" width="24.71" height="147.45" fill="#3498db"/>
<text x="187.50" y="26" text-anchor="middle" fill="#7f8c8d" font-size="14">Histogram</text>
<rect x="335" y="39" width="12" height="12" fill="#3498db"/>
<text x="351" y="49" text-anchor="start" fill="#7f8c8d" font-size="11">series 0</text>
</svg>
