<svg xmlns="http://www.w3.org/2000/svg" viewBox="0 0 600 224" width="600" height="224" font-family="system-ui, -apple-system, sans-serif">
<rect width="100%" height="100%" fill="white"/>
<line x1="55" y1="196.20" x2="480" y2="196.20" stroke="#ecf0f1" stroke-width="1"/>
<line x1="55" y1="34" x2="55" y2="196.20" stroke="#ecf0f1" stroke-width="1"/>
<text x="100.96" y="211.20" text-anchor="middle" fill="#7f8c8d" font-size="11">Jan</text>
<text x="167.58" y="211.20" text-anchor="middle" fill="#7f8c8d" font-size="11">Feb</text>
<text x="234.19" y="211.20" text-anchor="middle" fill="#7f8c8d" font-size="11">Mar</text>
<text x="300.81" y="211.20" text-anchor="middle" fill="#7f8c8d" font-size="11">Apr</text>
<text x="367.42" y="211.20" text-anchor="middle" fill="#7f8c8d" font-size="11">May</text>
<text x="434.04" y="211.20" text-anchor="middle" fill="#7f8c8d" font-size="11">Jun</text>
<text x="49" y="192.49" text-anchor="end" fill="#7f8c8d" font-size="11">0.0</text>
<text x="49" y="139.83" text-anchor="end" fill="#7f8c8d" font-size="11">10.0</text>
<text x="49" y="87.17" text-anchor="end" fill="#7f8c8d" font-size="11">20.0</text>
<rect x="74.32" y="125.63" width="53.29" height="63.19" fill="#3498db"/>
<rect x="140.93" y="94.04" width="53.29" height="94.79" fill="#3498db"/>
<rect x="207.55" y="109.83" width="53.29" height="78.99" fill="#3498db"/>
<rect x="274.16" y="62.44" width="53.29" height="126.39" fill="#3498db"/>
<rect x="340.78" y="83.50" width="53.29" height="105.32" fill="#3498db"/>
<rect x="407.39" y="41.37" width="53.29" height="147.45" fill="#3498db"/>
<polyline points="100.96,125.63 167.58,109.83 234.19,101.93 300.81,86.14 367.42,72.97 434.04,62.44" fill="none" stroke="#e74c3c" stroke-width="2.50" stroke-linejoin="round" stroke-linecap="round"/>
<text x="267.50" y="26" text-anchor="middle" fill="#7f8c8d" font-size="14">Monthly sales + trend</text>
<rect x="495" y="39" width="12" height="12" fill="#3498db"/>
<text x="511" y="49" text-anchor="start" fill="#7f8c8d" font-size="11">series 0</text>
<rect x="495" y="56" width="12" height="12" fill="#9b59b6"/>
<text x="511" y="66" text-anchor="start" fill="#7f8c8d" font-size="11">series 1</text>
</svg>
