<svg xmlns="http://www.w3.org/2000/svg" viewBox="0 0 500 224" width="500" height="224" font-family="system-ui, -apple-system, sans-serif">
<rect width="100%" height="100%" fill="white"/>
<line x1="55" y1="196.20" x2="380" y2="196.20" stroke="#ecf0f1" stroke-width="1"/>
<line x1="55" y1="34" x2="55" y2="196.20" stroke="#ecf0f1" stroke-width="1"/>
<text x="69.77" y="211.20" text-anchor="middle" fill="#7f8c8d" font-size="11">0.0</text>
<text x="168.26" y="211.20" text-anchor="middle" fill="#7f8c8d" font-size="11">2.0</text>
<text x="266.74" y="211.20" text-anchor="middle" fill="#7f8c8d" font-size="11">4.0</text>
<text x="365.23" y="211.20" text-anchor="middle" fill="#7f8c8d" font-size="11">6.0</text>
<text x="49" y="194.17" text-anchor="end" fill="#7f8c8d" font-size="11">-1.0</text>
<text x="49" y="119.51" text-anchor="end" fill="#7f8c8d" font-size="11">0.0</text>
<text x="49" y="44.85" text-anchor="end" fill="#7f8c8d" font-size="11">1.0</text>
<polyline points="69.77,115.85 94.39,80.05 119.02,53.02 143.64,41.37 168.26,47.96 192.88,71.16 217.50,105.31 242.12,142.03 266.74,172.35 291.36,188.83 315.98,187.44 340.61,168.52 365.23,136.71" fill="none" stroke="#3498db" stroke-width="2" stroke-linejoin="round" stroke-linecap="round"/>
<text x="217.50" y="26" text-anchor="middle" fill="#7f8c8d" font-size="14">sin(x)</text>
<rect x="395" y="39" width="12" height="12" fill="#3498db"/>
<text x="411" y="49" text-anchor="start" fill="#7f8c8d" font-size="11">series 0</text>
</svg>
