<svg xmlns="http://www.w3.org/2000/svg" viewBox="0 0 300 256" width="300" height="256" font-family="system-ui, -apple-system, sans-serif">
<rect width="100%" height="100%" fill="white"/>
<line x1="55" y1="228.20" x2="180" y2="228.20" stroke="#ecf0f1" stroke-width="1"/>
<line x1="55" y1="34" x2="55" y2="228.20" stroke="#ecf0f1" stroke-width="1"/>
<text x="60.68" y="243.20" text-anchor="middle" fill="#7f8c8d" font-size="11">0.0</text>
<text x="117.50" y="243.20" text-anchor="middle" fill="#7f8c8d" font-size="11">0.5</text>
<text x="174.32" y="243.20" text-anchor="middle" fill="#7f8c8d" font-size="11">1.0</text>
<text x="49" y="187.73" text-anchor="end" fill="#7f8c8d" font-size="11">20.0</text>
<text x="49" y="117.11" text-anchor="end" fill="#7f8c8d" font-size="11">30.0</text>
<text x="49" y="46.49" text-anchor="end" fill="#7f8c8d" font-size="11">40.0</text>
<path d="M 117.50 131.10 L 117.50 74.85 A 56.25 56.25 0 0 0 150.56 176.61 Z" fill="#3498db" stroke="#7f8c8d" stroke-width="1"/>
<path d="M 117.50 131.10 L 150.56 176.61 A 56.25 56.25 0 0 0 71.99 164.16 Z" fill="#9b59b6" stroke="#7f8c8d" stroke-width="1"/>
<path d="M 117.50 131.10 L 71.99 164.16 A 56.25 56.25 0 0 0 71.99 98.04 Z" fill="#1abc9c" stroke="#7f8c8d" stroke-width="1"/>
<path d="M 117.50 131.10 L 71.99 98.04 A 56.25 56.25 0 0 0 117.50 74.85 Z" fill="#2ecc71" stroke="#7f8c8d" stroke-width="1"/>
<text x="117.50" y="26" text-anchor="middle" fill="#7f8c8d" font-size="14">Pie</text>
<rect x="195" y="39" width="12" height="12" fill="#3498db"/>
<text x="211" y="49" text-anchor="start" fill="#7f8c8d" font-size="11">series 0</text>
</svg>
