<svg xmlns="http://www.w3.org/2000/svg" viewBox="0 0 400 320" width="400" height="320" font-family="system-ui, -apple-system, sans-serif">
<rect width="100%" height="100%" fill="white"/>
<polyline points="172.61,163.10 172.59,163.60 172.52,164.10 172.39,164.58 172.22,165.06 172.01,165.51 171.75,165.94 171.45,166.34 171.12,166.72 170.74,167.05 170.34,167.35 169.91,167.61 169.46,167.82 168.98,167.99 168.50,168.12 168.00,168.19 167.50,168.21 167.00,168.19 166.50,168.12 166.02,167.99 165.54,167.82 165.09,167.61 164.66,167.35 164.26,167.05 163.88,166.72 163.55,166.34 163.25,165.94 162.99,165.51 162.78,165.06 162.61,164.58 162.48,164.10 162.41,163.60 162.39,163.10 162.41,162.60 162.48,162.10 162.61,161.62 162.78,161.14 162.99,160.69 163.25,160.26 163.55,159.86 163.88,159.48 164.26,159.15 164.66,158.85 165.09,158.59 165.54,158.38 166.02,158.21 166.50,158.08 167.00,158.01 167.50,157.99 168.00,158.01 168.50,158.08 168.98,158.21 169.46,158.38 169.91,158.59 170.34,158.85 170.74,159.15 171.12,159.48 171.45,159.86 171.75,160.26 172.01,160.69 172.22,161.14 172.39,161.62 172.52,162.10 172.59,162.60 172.61,163.10" fill="none" stroke="#bdc3c7" stroke-width="0.50" stroke-linejoin="round" stroke-linecap="round"/>
<polyline points="223.75,163.10 223.48,168.61 222.67,174.07 221.33,179.43 219.47,184.63 217.11,189.62 214.27,194.35 210.98,198.78 207.27,202.87 203.18,206.58 198.75,209.87 194.02,212.71 189.03,215.07 183.83,216.93 178.47,218.27 173.01,219.08 167.50,219.35 161.99,219.08 156.53,218.27 151.17,216.93 145.97,215.07 140.98,212.71 136.25,209.87 131.82,206.58 127.73,202.87 124.02,198.78 120.73,194.35 117.89,189.62 115.53,184.63 113.67,179.43 112.33,174.07 111.52,168.61 111.25,163.10 111.52,157.59 112.33,152.13 113.67,146.77 115.53,141.57 117.89,136.58 120.73,131.85 124.02,127.42 127.73,123.33 131.82,119.62 136.25,116.33 140.98,113.49 145.97,111.13 151.17,109.27 156.53,107.93 161.99,107.12 167.50,106.85 173.01,107.12 178.47,107.93 183.83,109.27 189.03,111.13 194.02,113.49 198.75,116.33 203.18,119.62 207.27,123.33 210.98,127.42 214.27,131.85 217.11,136.58 219.47,141.57 221.33,146.77 222.67,152.13 223.48,157.59 223.75,163.10" fill="none" stroke="#bdc3c7" stroke-width="0.50" stroke-linejoin="round" stroke-linecap="round"/>
<polyline points="274.89,163.10 274.37,173.63 272.82,184.05 270.26,194.27 266.71,204.19 262.21,213.72 256.79,222.76 250.51,231.23 243.43,239.03 235.63,246.11 227.16,252.39 218.12,257.81 208.59,262.31 198.67,265.86 188.45,268.42 178.03,269.97 167.50,270.49 156.97,269.97 146.55,268.42 136.33,265.86 126.41,262.31 116.88,257.81 107.84,252.39 99.37,246.11 91.57,239.03 84.49,231.23 78.21,222.76 72.79,213.72 68.29,204.19 64.74,194.27 62.18,184.05 60.63,173.63 60.11,163.10 60.63,152.57 62.18,142.15 64.74,131.93 68.29,122.01 72.79,112.48 78.21,103.44 84.49,94.97 91.57,87.17 99.37,80.09 107.84,73.81 116.88,68.39 126.41,63.89 136.33,60.34 146.55,57.78 156.97,56.23 167.50,55.71 178.03,56.23 188.45,57.78 198.67,60.34 208.59,63.89 218.12,68.39 227.16,73.81 235.63,80.09 243.43,87.17 250.51,94.97 256.79,103.44 262.21,112.48 266.71,122.01 270.26,131.93 272.82,142.15 274.37,152.57 274.89,163.10" fill="none" stroke="#bdc3c7" stroke-width="0.50" stroke-linejoin="round" stroke-linecap="round"/>
<polyline points="167.50,163.10 275.44,131.41" fill="none" stroke="#bdc3c7" stroke-width="0.50" stroke-linejoin="round" stroke-linecap="round"/>
<polyline points="167.50,163.10 110.34,66.20" fill="none" stroke="#bdc3c7" stroke-width="0.50" stroke-linejoin="round" stroke-linecap="round"/>
<polyline points="167.50,163.10 87.55,242.25" fill="none" stroke="#bdc3c7" stroke-width="0.50" stroke-linejoin="round" stroke-linecap="round"/>
<polyline points="167.50,163.10 263.82,221.23" fill="none" stroke="#bdc3c7" stroke-width="0.50" stroke-linejoin="round" stroke-linecap="round"/>
<polyline points="280,163.10 279.46,174.13 277.84,185.05 275.16,195.76 271.44,206.15 266.72,216.13 261.04,225.60 254.46,234.47 247.05,242.65 238.87,250.06 230.00,256.64 220.53,262.32 210.55,267.04 200.16,270.76 189.45,273.44 178.53,275.06 167.50,275.60 156.47,275.06 145.55,273.44 134.84,270.76 124.45,267.04 114.47,262.32 105.00,256.64 96.13,250.06 87.95,242.65 80.54,234.47 73.96,225.60 68.28,216.13 63.56,206.15 59.84,195.76 57.16,185.05 55.54,174.13 55,163.10 55.54,152.07 57.16,141.15 59.84,130.44 63.56,120.05 68.28,110.07 73.96,100.60 80.54,91.73 87.95,83.55 96.13,76.14 105.00,69.56 114.47,63.88 124.45,59.16 134.84,55.44 145.55,52.76 156.47,51.14 167.50,50.60 178.53,51.14 189.45,52.76 200.16,55.44 210.55,59.16 220.53,63.88 230.00,69.56 238.87,76.14 247.05,83.55 254.46,91.73 261.04,100.60 266.72,110.07 271.44,120.05 275.16,130.44 277.84,141.15 279.46,152.07 280,163.10" fill="none" stroke="#ecf0f1" stroke-width="1" stroke-linejoin="round" stroke-linecap="round"/>
<text x="285.04" y="132.25" text-anchor="middle" fill="#7f8c8d" font-size="11">0.0</text>
<text x="105.26" y="61.26" text-anchor="middle" fill="#7f8c8d" font-size="11">2.0</text>
<text x="80.45" y="252.95" text-anchor="middle" fill="#7f8c8d" font-size="11">4.0</text>
<text x="272.38" y="230.07" text-anchor="middle" fill="#7f8c8d" font-size="11">6.0</text>
<text x="175.61" y="161.10" text-anchor="start" fill="#7f8c8d" font-size="11">0.0</text>
<text x="226.75" y="161.10" text-anchor="start" fill="#7f8c8d" font-size="11">0.5</text>
<text x="277.89" y="161.10" text-anchor="start" fill="#7f8c8d" font-size="11">1.0</text>
<polyline points="172.41,161.66 207.07,143.29 229.49,116.70 235.37,90.20 225.56,72.76 205.62,71.08 183.96,87.44 169.08,118.88 166.77,158.04 153.53,121.11 130.39,95.14 105.00,85.55 86.34,92.78 81.84,112.28 94.95,136.04 123.95,155.24 162.39,163.10 123.95,170.96 94.95,190.16 81.84,213.92 86.34,233.42 105.00,240.65 130.39,231.06 153.53,205.09 166.77,168.16 169.08,207.32 183.96,238.76 205.62,255.12 225.56,253.44 235.37,236.00 229.49,209.50 207.07,182.91 172.41,164.54" fill="none" stroke="#3498db" stroke-width="2" stroke-linejoin="round" stroke-linecap="round"/>
<text x="167.50" y="26" text-anchor="middle" fill="#7f8c8d" font-size="14">r = |sin(2 theta)|</text>
<rect x="295" y="39" width="12" height="12" fill="#3498db"/>
<text x="311" y="49" text-anchor="start" fill="#7f8c8d" font-size="11">series 0</text>
</svg>
